<svg
        class="result__planet"
        viewBox="0 0 100 100"
        fill="none"
        xmlns="http://www.w3.org/2000/svg">
        <g id="happy">
          <g id="Group">
            <path
              id="Vector"
              d="M50 100C77.6142 100 100 77.6142 100 50C100 22.3858 77.6142 0 50 0C22.3858 0 0 22.3858 0 50C0 77.6142 22.3858 100 50 100Z"
              fill="#ABD4FF"
            />
            <path
              id="Vector_2"
              d="M50.0001 0C48.9864 0 47.9808 0.0337891 46.9819 0.0933594C73.1905 1.6543 93.964 23.3994 93.964 50C93.964 76.6006 73.1905 98.3459 46.9821 99.9066C47.9808 99.9662 48.9864 100 50.0001 100C77.6144 100 100 77.6143 100 50C100 22.3857 77.6144 0 50.0001 0Z"
              fill="#9AC3F8"
            />
            <path
              id="Vector_3"
              d="M99.2691 41.5176C95.2384 17.9457 74.7214 0 50.0001 0C46.3929 0 42.8781 0.390625 39.4874 1.11641C40.4849 5.13242 41.5027 9.84902 42.4189 15.4139C43.9173 24.515 44.5456 32.232 48.8822 33.6287C53.106 34.9891 56.5386 28.9664 62.3964 30.1033C67.3112 31.0572 67.9999 35.8996 72.3851 39.5045C78.3335 44.3941 89.5237 45.7232 99.2691 41.5176Z"
              fill="#D0E6A5"
            />
            <path
              id="Vector_4"
              d="M49.9999 0C48.9891 0 47.9866 0.0339844 46.9911 0.0939453C70.9716 1.52656 90.3964 19.859 93.521 43.3445C94.244 43.1895 94.9636 43.0102 95.6743 42.8045C96.5157 42.5609 97.3477 42.2799 98.1659 41.965C98.5364 41.8225 98.9032 41.6752 99.2688 41.5176C95.2382 17.9457 74.7212 0 49.9999 0V0Z"
              fill="#A7D676"
            />
            <path
              id="Vector_5"
              d="M20.7615 33.3991C19.1934 28.3386 14.8924 23.6288 9.64727 20.4863C3.58633 28.7589 0 38.9587 0 49.9999C0 63.3066 5.20801 75.3894 13.6842 84.348C19.9564 80.1786 24.4516 73.4661 24.8771 67.446C25.1602 63.4425 23.4096 63.0632 21.8842 55.0993C19.5998 43.1751 22.6664 39.5464 20.7615 33.3991Z"
              fill="#D0E6A5"
            />
            <path
              id="Vector_6"
              d="M33.0398 97.0444C38.3361 98.9541 44.0453 100 50 100C64.7701 100 78.0398 93.592 87.1929 83.4088C83.8511 78.4533 78.8099 73.8496 75.9595 71.249C72.0085 67.6442 62.59 59.051 56.7816 61.8344C52.2402 64.011 54.4589 70.9606 50.5052 79.9662C46.3906 89.3389 38.6408 93.9953 33.0398 97.0444Z"
              fill="#D0E6A5"
            />
            <path
              id="Vector_7"
              d="M85.7743 81.4495C85.289 80.8183 84.7821 80.1987 84.2653 79.5923C75.7212 91.2069 62.2784 98.9956 46.9819 99.9065C46.9823 99.9069 46.9827 99.9071 46.9831 99.9073C47.9813 99.9671 48.9868 99.9999 50.0001 99.9999C64.7702 99.9999 78.0399 93.5919 87.1929 83.4087C86.7435 82.7421 86.2665 82.0896 85.7743 81.4495Z"
              fill="#A7D676"
            />
          </g>
          <g id="Group_2">
            <g id="Group_3">
              <path
                id="Vector_8"
                d="M30.2406 58.3223C34.2694 58.3223 37.5355 55.7216 37.5355 52.5135C37.5355 49.3054 34.2694 46.7047 30.2406 46.7047C26.2117 46.7047 22.9457 49.3054 22.9457 52.5135C22.9457 55.7216 26.2117 58.3223 30.2406 58.3223Z"
                fill="white"
              />
              <path
                id="Vector_9"
                d="M69.782 58.3223C73.8108 58.3223 77.0768 55.7216 77.0768 52.5135C77.0768 49.3054 73.8108 46.7047 69.782 46.7047C65.7531 46.7047 62.4871 49.3054 62.4871 52.5135C62.4871 55.7216 65.7531 58.3223 69.782 58.3223Z"
                fill="white"
              />
            </g>
            <g id="Group_4">
              <path
                id="Vector_10"
                d="M37.9634 47.82C37.0644 47.82 36.3356 47.0913 36.3356 46.1924C36.3356 45.1755 35.5082 44.3483 34.4912 44.3483C33.4741 44.3483 32.6466 45.1755 32.6466 46.1924C32.6466 47.0913 31.9178 47.82 31.0188 47.82C30.1198 47.82 29.391 47.0913 29.391 46.1924C29.391 43.3806 31.679 41.093 34.4912 41.093C37.3034 41.093 39.5912 43.3806 39.5912 46.1924C39.5912 47.0913 38.8623 47.82 37.9634 47.82Z"
                fill="#4E5660"
              />
              <path
                id="Vector_11"
                d="M69.0026 47.82C68.1036 47.82 67.3748 47.0913 67.3748 46.1924C67.3748 45.1755 66.5472 44.3483 65.5302 44.3483C64.5131 44.3483 63.6858 45.1755 63.6858 46.1924C63.6858 47.0913 62.9569 47.82 62.058 47.82C61.159 47.82 60.4302 47.0913 60.4302 46.1924C60.4302 43.3806 62.718 41.093 65.5302 41.093C68.3423 41.093 70.6304 43.3806 70.6304 46.1924C70.6304 47.0913 69.9015 47.82 69.0026 47.82Z"
                fill="#4E5660"
              />
              <path
                id="Vector_12"
                d="M50.0112 61.413C48.1293 61.413 46.3396 60.5981 45.1009 59.1769C44.5103 58.4992 44.5809 57.4712 45.2587 56.8805C45.9365 56.29 46.9644 56.3603 47.5554 57.0382C48.1755 57.7498 49.0708 58.1578 50.0114 58.1578C50.9521 58.1578 51.8474 57.7498 52.4674 57.0382C53.0582 56.3605 54.0863 56.2902 54.7641 56.8805C55.4417 57.4712 55.5125 58.4992 54.9219 59.1769C53.6828 60.5981 51.8931 61.413 50.0112 61.413Z"
                fill="#4E5660"
              />
            </g>
          </g>
        </g>
      </svg>