<svg width="140" height="140" viewBox="0 0 140 140" fill="none" xmlns="http://www.w3.org/2000/svg">
<path d="M70 140C108.66 140 140 108.66 140 70C140 31.3401 108.66 0 70 0C31.3401 0 0 31.3401 0 70C0 108.66 31.3401 140 70 140Z" fill="#ABD4FF"/>
<path d="M69.9998 0C68.5807 0 67.1728 0.0473047 65.7744 0.130703C102.466 2.31602 131.549 32.7592 131.549 70C131.549 107.241 102.466 137.684 65.7747 139.869C67.1728 139.953 68.5807 140 69.9998 140C108.66 140 140 108.66 140 70C140 31.34 108.66 0 69.9998 0Z" fill="#9AC3F8"/>
<path d="M138.977 58.1246C133.334 25.124 104.61 0 70 0C64.9499 0 60.0291 0.546875 55.2822 1.56297C56.6787 7.18539 58.1036 13.7886 59.3863 21.5794C61.4841 34.3211 62.3637 45.1248 68.4348 47.0802C74.3482 48.9847 79.1539 40.553 87.3548 42.1446C94.2356 43.4801 95.1997 50.2595 101.339 55.3063C109.667 62.1518 125.333 64.0125 138.977 58.1246Z" fill="#D0E6A5"/>
<path d="M69.9999 0C68.5849 0 67.1813 0.0475781 65.7876 0.131523C99.3603 2.13719 126.555 27.8026 130.929 60.6823C131.942 60.4652 132.949 60.2142 133.944 59.9263C135.122 59.5853 136.287 59.1918 137.432 58.7511C137.951 58.5514 138.465 58.3453 138.976 58.1246C133.333 25.124 104.61 0 69.9999 0V0Z" fill="#A7D676"/>
<path d="M29.0661 46.7587C26.8707 39.6739 20.8493 33.0803 13.5062 28.6807C5.02086 40.2624 0 54.5421 0 69.9998C0 88.6291 7.29121 105.545 19.1579 118.087C27.939 112.25 34.2322 102.853 34.828 94.4243C35.2242 88.8194 32.7734 88.2884 30.6379 77.139C27.4397 60.4451 31.733 55.3649 29.0661 46.7587Z" fill="#D0E6A5"/>
<path d="M46.2559 135.862C53.6707 138.536 61.6635 140 70.0001 140C90.6782 140 109.256 131.029 122.07 116.772C117.392 109.834 110.334 103.389 106.343 99.7485C100.812 94.7016 87.6261 82.6712 79.4944 86.5679C73.1364 89.6151 76.2427 99.3446 70.7075 111.953C64.947 125.074 54.0972 131.593 46.2559 135.862Z" fill="#D0E6A5"/>
<path d="M120.084 114.029C119.404 113.146 118.695 112.278 117.971 111.429C106.009 127.69 87.1895 138.594 65.7744 139.869C65.775 139.87 65.7755 139.87 65.7761 139.87C67.1736 139.954 68.5813 140 69.9998 140C90.678 140 109.256 131.029 122.07 116.772C121.441 115.839 120.773 114.925 120.084 114.029Z" fill="#A7D676"/>
<path d="M76.3137 81.7486C75.147 81.7486 74.2011 80.8027 74.2011 79.636C74.2011 77.3194 72.3166 75.4349 69.9998 75.4349C67.6829 75.4349 65.7984 77.3194 65.7984 79.636C65.7984 80.803 64.8526 81.7486 63.6858 81.7486C62.5188 81.7486 61.5732 80.8027 61.5732 79.636C61.5732 74.9895 65.3535 71.2095 70 71.2095C74.6466 71.2095 78.4268 74.9895 78.4268 79.636C78.4266 80.8027 77.4808 81.7486 76.3137 81.7486Z" fill="#4E5660"/>
<path d="M55.2701 61.4059C54.9373 61.4059 54.5991 61.3269 54.2843 61.1604C53.4998 60.7453 52.2333 60.2646 50.6517 60.3417C49.6291 60.3901 48.6053 60.6726 47.6907 61.1585C46.6604 61.7062 45.3812 61.3143 44.8338 60.284C44.2864 59.2534 44.6779 57.9746 45.7082 57.4271C47.1698 56.6506 48.8098 56.1988 50.4513 56.1209C52.9888 56.0012 55.0089 56.7638 56.2591 57.4252C57.2908 57.9707 57.6845 59.249 57.139 60.2804C56.7609 60.9971 56.0278 61.4059 55.2701 61.4059Z" fill="#4E5660"/>
<path d="M84.7297 61.406C84.0057 61.406 83.3007 61.0336 82.9067 60.3642C82.3153 59.3585 82.6508 58.0638 83.6565 57.4721C84.8418 56.7748 86.7709 55.9569 89.2554 56.0119C91.5222 56.0639 93.2891 56.835 94.372 57.4723C95.3774 58.0646 95.7124 59.3596 95.1204 60.365C94.5281 61.3707 93.2334 61.7054 92.2279 61.1134C91.5774 60.7303 90.5165 60.2671 89.1586 60.236C87.6755 60.1991 86.5117 60.6942 85.7989 61.1137C85.4625 61.3119 85.0937 61.406 84.7297 61.406Z" fill="#4E5660"/>
<path d="M97.8773 89.5242C97.8773 93.1746 94.9179 96.134 91.2675 96.134C87.6171 96.134 84.6577 93.1746 84.6577 89.5242C84.6577 86.7559 88.459 81.3839 90.296 78.9495C90.7833 78.3039 91.7515 78.3039 92.2388 78.9495C94.076 81.3839 97.8773 86.7556 97.8773 89.5242Z" fill="white"/>
<path d="M56.2455 84.8282C56.2455 88.8223 53.0077 92.0601 49.0136 92.0601C45.0195 92.0601 41.7817 88.8223 41.7817 84.8282C41.7817 81.7993 45.9407 75.9221 47.9508 73.2582C48.484 72.5519 49.5433 72.5519 50.0765 73.2582C52.0865 75.9221 56.2455 81.7993 56.2455 84.8282Z" fill="white"/>
<path d="M41.7331 25.2917C44.8629 27.0986 45.935 31.1004 44.1281 34.2301L30.0784 58.5655C28.2715 61.6953 24.2695 62.7674 21.14 60.9606C18.0102 59.1537 16.9381 55.1517 18.7449 52.0222L32.7947 27.6871C34.6016 24.5573 38.6036 23.4849 41.7331 25.2917Z" fill="#FFDD95"/>
<path d="M41.7327 25.2915C39.2759 23.8732 36.2823 24.2295 34.2343 25.962C36.6107 27.9666 37.2858 31.4433 35.6772 34.2299L21.6274 58.5651C21.2389 59.238 20.7483 59.8152 20.1875 60.2896C20.4801 60.5363 20.7967 60.7621 21.1396 60.9601C24.2694 62.767 28.2711 61.6948 30.078 58.5651L44.1278 34.2299C45.9347 31.1004 44.8625 27.0987 41.7327 25.2915Z" fill="#FFBB6C"/>
<path d="M33.3296 52.9365L21.9965 46.3932L29.546 33.3175L40.8791 39.8608L33.3296 52.9365Z" fill="#FC887B"/>
<path d="M26.9893 49.2773L34.5387 36.2017L40.8766 39.8609L33.3271 52.9366L26.9893 49.2773Z" fill="#E67265"/>
<path d="M107.872 37.9682C104.743 39.7751 103.67 43.7771 105.477 46.9066L119.527 71.2417C121.334 74.3715 125.336 75.4436 128.466 73.6368C131.596 71.8299 132.668 67.8279 130.861 64.6984L116.811 40.3632C115.004 37.2335 111.002 36.1611 107.872 37.9682Z" fill="#FFDD95"/>
<path d="M130.86 64.6982L116.81 40.3631C115.004 37.2334 111.002 36.1612 107.872 37.9681C107.529 38.1661 107.212 38.3919 106.92 38.6386C107.481 39.1132 107.971 39.6902 108.36 40.3631L122.41 64.6982C124.019 67.4848 123.343 70.9619 120.967 72.9662C123.015 74.6987 126.008 75.0549 128.465 73.6366C131.595 71.8298 132.667 67.8277 130.86 64.6982Z" fill="#FFBB6C"/>
<path d="M108.725 52.5352L120.058 45.9918L127.607 59.0675L116.274 65.6108L108.725 52.5352Z" fill="#FC887B"/>
<path d="M120.083 46.0312L120.061 45.9927L113.723 49.6518L121.272 62.7279L127.61 59.0687L120.083 46.0312Z" fill="#E67265"/>
</svg>
