<svg width="70" height="70" viewBox="0 0 70 70" fill="none" xmlns="http://www.w3.org/2000/svg">
<g clip-path="url(#clip0)">
<path d="M44.3584 12.8585L42.4267 5.39986C42.3541 5.12001 42.1015 4.92455 41.8126 4.92455H28.3148C28.0259 4.92455 27.7733 5.12001 27.7006 5.39986L25.769 12.8585L21.002 11.6238L22.9336 4.16512C23.5686 1.71272 25.7818 0 28.3148 0H41.8126C44.3461 0 46.5587 1.71272 47.1943 4.16512L49.126 11.6238L44.3584 12.8585Z" fill="#1CB4C9"/>
<path d="M4.86311 28.0698C3.41902 28.0698 2.34396 29.4034 2.64998 30.8149L3.41101 33.9028C3.60487 34.7963 4.39528 35.4334 5.30905 35.4334H17.7574V28.0698H4.86311Z" fill="#78F0E5"/>
<path d="M65.2639 28.0698C66.708 28.0698 67.7836 29.4034 67.477 30.8149L66.716 33.9028C66.5221 34.7963 65.7317 35.4334 64.8179 35.4334H52.3701V28.0698H65.2639Z" fill="#78F0E5"/>
<path d="M56.7038 15.7588H13.4243L9.92139 21.1757L16.3829 66.2117C16.6954 68.3854 18.5576 69.9998 20.7537 69.9998H49.3738C51.5704 69.9998 53.4327 68.3854 53.7445 66.2117L60.2066 21.1757L56.7038 15.7588Z" fill="#1CB4C9"/>
<path d="M62.6087 18.0701L61.5454 13.9765C60.9895 11.836 59.0578 10.3423 56.8468 10.3423H13.281C11.07 10.3423 9.13781 11.836 8.58186 13.9765L7.51908 18.0701C7.11053 19.6418 8.2972 21.1762 9.92127 21.1762H60.2065C61.8306 21.1762 63.0167 19.6418 62.6087 18.0701Z" fill="#78F0E5"/>
<path d="M25.051 17.5405C24.4678 17.5405 23.9946 17.0679 23.9946 16.4847V14.6721C23.9946 14.0889 24.4678 13.6157 25.051 13.6157C25.6347 13.6157 26.1074 14.0889 26.1074 14.6721V16.4847C26.1074 17.0679 25.6347 17.5405 25.051 17.5405Z" fill="#2D3C50"/>
<path d="M45.0764 17.5405C44.4927 17.5405 44.02 17.0679 44.02 16.4847V14.6721C44.02 14.0889 44.4927 13.6157 45.0764 13.6157C45.6596 13.6157 46.1328 14.0889 46.1328 14.6721V16.4847C46.1328 17.0679 45.6596 17.5405 45.0764 17.5405Z" fill="#2D3C50"/>
<path d="M35.0635 18.5082C33.7956 18.5082 32.6052 17.9778 31.7972 17.0534C31.4132 16.6139 31.4581 15.9468 31.8971 15.5628C32.3366 15.1788 33.0036 15.2237 33.3876 15.6627C33.7946 16.1284 34.4055 16.3954 35.0635 16.3954C35.722 16.3954 36.333 16.1284 36.7394 15.6627C37.1234 15.2237 37.7909 15.1788 38.2299 15.5628C38.6695 15.9468 38.7143 16.6139 38.3303 17.0534C37.5223 17.9778 36.3319 18.5082 35.0635 18.5082Z" fill="#2D3C50"/>
<path d="M23.2647 50.2363L21.7998 53.6121L23.6306 56.7833C24.3093 57.9326 25.5398 58.6435 26.8744 58.6584H28.2544C28.8211 58.6584 29.2809 58.1991 29.2809 57.632V51.2628C29.2809 50.6956 28.8211 50.2363 28.2544 50.2363H23.2647Z" fill="#E5E8EC"/>
<path d="M51.6793 43.8922L50.2246 40.9869C49.9591 40.4572 49.3017 40.2612 48.7895 40.5602L43.3838 43.7133C42.9016 43.9948 42.7328 44.61 43.0036 45.0981L45.5238 49.6339V50.7137L50.3362 49.6339L51.5933 47.6034C52.2919 46.4733 52.3245 45.0538 51.6793 43.8922Z" fill="#E5E8EC"/>
<path d="M35.4969 30.5836L33.4985 27.375H30.684C29.3948 27.375 28.1996 28.0517 27.5363 29.1572L26.2011 31.327C25.9074 31.8045 26.0511 32.4299 26.5242 32.7311L31.3671 35.8126C31.8664 36.1303 32.5308 35.9605 32.817 35.4425L35.4969 30.5836Z" fill="#E5E8EC"/>
<path d="M46.0345 33.1583L43.7193 29.1801C43.1297 28.066 41.9714 27.3712 40.711 27.3755H33.4985L38.9064 37.6022L37.2861 38.5747C36.8364 38.8444 36.9854 39.5307 37.5066 39.5899L44.4654 40.3819C44.6967 40.4081 44.9194 40.2853 45.0208 40.0759L48.4238 33.0515C48.653 32.5783 48.1504 32.0854 47.682 32.323L46.0345 33.1583Z" fill="white"/>
<path d="M38.3045 49.6342V48.0454C38.3045 47.5439 37.6876 47.3052 37.3501 47.6763L32.5975 52.9042C32.4192 53.1008 32.4069 53.3972 32.5687 53.6076L37.3213 59.7861C37.6406 60.2011 38.305 59.9752 38.305 59.4512V58.6582H43.1174C44.3847 58.6891 45.5564 57.9863 46.1252 56.8536L50.3363 49.6342H38.3045Z" fill="white"/>
<path d="M29.9166 43.5924L27.0322 37.3423C26.9371 37.1362 26.7256 37.0101 26.4997 37.0246L18.9657 37.4951C18.4322 37.5287 18.2565 38.2273 18.711 38.5092L20.6892 39.736L18.452 44.2199C17.8298 45.3425 17.8298 46.707 18.452 47.8296L21.7995 53.6124L23.0518 51.4393L27.523 43.6789L29.2207 44.3342C29.6805 44.5115 30.1233 44.0399 29.9166 43.5924Z" fill="white"/>
</g>
<defs>
<clipPath id="clip0">
<rect width="70" height="70" fill="white"/>
</clipPath>
</defs>
</svg>
