<svg width="70" height="70" viewBox="0 0 70 70" fill="none" xmlns="http://www.w3.org/2000/svg">
<g clip-path="url(#clip0)">
<path d="M26.5663 4.91121C26.2982 4.91121 26.0345 4.92994 25.7761 4.9648C25.6548 4.98121 25.5392 4.91299 25.4872 4.80211C24.1559 1.96588 21.2607 0 17.9029 0C13.7074 0 10.2339 3.06893 9.63141 7.07027C9.60871 7.2208 9.46789 7.32266 9.31695 7.30324C9.12035 7.27795 8.9202 7.26469 8.71662 7.26469C6.11623 7.26469 4.0083 9.35894 4.0083 11.9422C4.0083 14.5255 6.11623 16.6198 8.71662 16.6198H26.5663C29.8208 16.6198 32.4591 13.9988 32.4591 10.7655C32.4591 7.53225 29.8209 4.91121 26.5663 4.91121Z" fill="white"/>
<path d="M26.5663 4.91121C26.2982 4.91121 26.0345 4.92994 25.7761 4.9648C25.6548 4.98121 25.5393 4.91299 25.4872 4.80211C24.1558 1.96588 21.2606 0 17.9028 0C17.1741 0 16.4678 0.0944727 15.7939 0.268516C18.2221 0.897695 20.2205 2.58357 21.2619 4.80211C21.314 4.91299 21.4295 4.98121 21.5508 4.9648C21.8093 4.92994 22.0729 4.91121 22.341 4.91121C25.5954 4.91121 28.2337 7.53225 28.2337 10.7654C28.2337 13.9985 25.5954 16.6197 22.341 16.6197H26.5663C29.8207 16.6197 32.459 13.9986 32.459 10.7654C32.459 7.53211 29.8209 4.91121 26.5663 4.91121Z" fill="#EDEDED"/>
<path d="M35.0001 66.6901C52.502 66.6901 66.6901 52.502 66.6901 35.0001C66.6901 17.4982 52.502 3.31006 35.0001 3.31006C17.4982 3.31006 3.31006 17.4982 3.31006 35.0001C3.31006 52.502 17.4982 66.6901 35.0001 66.6901Z" fill="#29B6F6"/>
<path d="M35.0004 3.31006C34.2903 3.31006 33.5862 3.3359 32.8877 3.38184C49.4044 4.4693 62.4652 18.2083 62.4652 35C62.4652 51.7916 49.4044 65.5306 32.8877 66.6181C33.5862 66.664 34.2903 66.6899 35.0004 66.6899C52.5025 66.6899 66.6906 52.5017 66.6906 35C66.6906 17.4982 52.5025 3.31006 35.0004 3.31006Z" fill="#03A9F4"/>
<path d="M48.482 56.3212C46.5849 59.4733 46.6976 59.3677 46.4623 59.4733C44.1073 60.5296 43.9962 60.4902 43.913 60.8831C43.6271 62.2507 43.375 64.5999 42.3666 65.8281C40.0033 66.3929 37.537 66.6901 35.0005 66.6901C34.6004 66.6901 34.2033 66.6831 33.8075 66.6691C33.8609 66.4831 33.892 66.3311 33.8765 66.2381L32.6864 58.7593C32.5554 57.9297 30.2075 57.8551 29.8596 57.2199C28.1357 54.0833 28.2426 54.3199 28.2271 54.1494C27.9033 50.7142 27.8483 50.7594 28.0285 50.5073C29.4835 48.4749 29.4397 48.589 29.4538 48.3608C29.5805 46.1298 29.4989 45.8918 29.882 45.679C31.313 44.8791 32.6285 45.3776 32.7834 45.4057C32.7834 45.4057 39.0962 46.1283 40.1144 47.6367C41.5609 49.7776 41.3539 50.2803 41.9116 50.1916C45.3595 49.6366 45.2243 49.5986 45.4905 49.7888C48.3426 51.8296 48.4145 51.7775 48.4286 52.1747C48.5765 56.2959 48.6074 56.1114 48.482 56.3212Z" fill="#6DE470"/>
<path d="M35.8893 47.637C37.3358 49.7779 37.1288 50.2806 37.6865 50.1918C41.1344 49.6369 40.9991 49.5989 41.2653 49.7891C41.3226 49.8301 41.3769 49.8688 41.432 49.9081C41.2338 49.5629 40.9502 48.8736 40.1146 47.637C39.0963 46.1286 32.7836 45.406 32.7836 45.406C32.6333 45.3787 31.3921 44.913 30.0127 45.613C31.9414 45.925 35.1842 46.5924 35.8893 47.637Z" fill="#4DCC68"/>
<path d="M48.4287 52.1749C48.4146 51.7778 48.3429 51.8299 45.4906 49.789C45.2245 49.5989 45.3597 49.6369 41.9118 50.1918C41.8866 50.1958 41.8635 50.1981 41.8412 50.1996C44.1259 51.8234 44.1903 51.8065 44.2033 52.1749C44.3512 56.296 44.3821 56.1115 44.2568 56.3213C42.3595 59.4734 42.4723 59.3678 42.237 59.4734C39.882 60.5297 39.7709 60.4903 39.6878 60.8832C39.4019 62.2508 39.1498 64.6001 38.1413 65.8282C36.7421 66.1626 35.3062 66.4005 33.8418 66.5412C33.8318 66.5817 33.8205 66.6243 33.8076 66.669C34.2034 66.6831 34.6006 66.6901 35.0006 66.6901C37.5373 66.6901 40.0034 66.3929 42.3668 65.8281C43.3752 64.5999 43.6273 62.2507 43.9132 60.8831C43.9963 60.4902 44.1076 60.5295 46.4624 59.4732C46.6976 59.3676 46.5849 59.4732 48.4822 56.3212C48.6076 56.1115 48.5767 56.296 48.4287 52.1749Z" fill="#4DCC68"/>
<path d="M39.6948 17.3399C39.1751 18.437 35.4779 18.7991 35.1089 21.6736C34.9848 22.6469 35.3158 25.151 34.4582 25.9849C32.8554 27.5454 33.0497 28.8665 32.2272 30.0369C31.7878 30.6609 30.4934 30.513 30.009 31.2398C29.7555 31.6215 29.4343 32.8749 28.6963 33.0821C27.9583 33.2877 24.7837 32.9328 24.7837 32.9328C23.0176 33.0061 23.0513 34.3243 23.3428 35.0004C23.8203 36.1087 27.8202 41.0116 26.7315 43.1186C25.8851 44.7566 24.1526 44.4102 22.3034 42.7778C21.4794 42.051 18.085 42.0989 16.9583 39.9031C16.3612 38.7411 15.757 36.7299 14.9344 35.1609C14.1119 33.5905 10.5935 31.5313 10.2554 31.099C9.54422 30.1891 8.36666 27.43 8.2808 26.523C8.19631 25.6174 9.04697 22.1934 9.0724 22.1258L10.0724 19.2794C10.2033 18.9061 9.55119 17.4949 9.19777 16.5991C14.6753 8.93016 23.4865 3.80771 33.5161 3.34424C33.4823 3.95838 33.2668 4.44988 33.0794 4.59781C26.6639 9.726 26.6442 10.6077 26.6737 12.2569C26.7231 15.0569 27.5018 15.9907 29.2202 16.3217C30.4329 16.5555 31.923 17.0217 33.1949 15.202C36.4372 10.5597 37.2175 10.9175 37.9526 10.9161C40.285 10.9131 40.216 16.2412 39.6948 17.3399Z" fill="#6DE470"/>
<path d="M28.8539 4.59781C22.4384 9.72599 22.4187 10.6077 22.4482 12.2569C22.4976 15.0569 23.2763 15.9907 24.9948 16.3217C25.978 16.5113 27.1438 16.8534 28.2278 16.0059C27.1969 15.4946 26.7122 14.4462 26.6737 12.2569C26.6441 10.6077 26.6638 9.72599 33.0794 4.59781C33.2667 4.44988 33.4821 3.95838 33.516 3.34424C32.056 3.41164 30.6227 3.58076 29.2207 3.83916C29.1345 4.21281 28.9872 4.49254 28.8539 4.59781Z" fill="#4DCC68"/>
<path d="M37.9525 10.9159C37.4189 10.9169 36.8607 10.7305 35.3555 12.4022C35.9592 14.0639 35.8123 16.6171 35.4694 17.3399C34.9498 18.4371 31.2525 18.7991 30.8835 21.6738C30.7595 22.6471 31.0905 25.1512 30.2328 25.9851C28.6301 27.5456 28.8244 28.8667 28.0019 30.0371C27.5624 30.6611 26.268 30.5132 25.7836 31.24C25.5661 31.5674 25.298 32.535 24.7603 32.9345C24.7682 32.9341 24.7756 32.9332 24.7836 32.933C24.7836 32.933 27.9582 33.2879 28.6963 33.0823C29.4343 32.8753 29.7554 31.6217 30.0089 31.24C30.4934 30.5132 31.7877 30.6611 32.2271 30.0371C33.0496 28.8667 32.8554 27.5456 34.4581 25.9851C35.3159 25.1512 34.9849 22.6471 35.1088 21.6738C35.4778 18.7991 39.1749 18.4372 39.6947 17.3399C40.2159 16.2412 40.2849 10.913 37.9525 10.9159Z" fill="#4DCC68"/>
<path d="M23.8592 33.1438C22.6821 33.17 20.5583 32.9326 20.5583 32.9326C18.7922 33.0059 18.8259 34.3241 19.1174 35.0002C19.586 36.0878 23.4421 40.8264 22.5588 42.9947C24.3107 44.4368 25.9241 44.6809 26.7314 43.1184C27.8201 41.0115 23.8201 36.1086 23.3427 35.0002C23.1158 34.4738 23.0454 33.5581 23.8592 33.1438Z" fill="#4DCC68"/>
<path d="M60.8763 16.702C60.2594 17.9442 59.5115 18.9794 58.9622 19.723C57.0861 22.2596 54.1355 23.54 53.0931 23.8822C52.0523 24.2259 50.5846 22.9146 50.4762 21.7569C50.3157 20.0513 49.9861 18.8118 49.6184 17.6442C49.2508 16.4767 49.6255 13.3048 49.6255 13.3048C50.0057 12.2541 47.8382 10.1767 47.8044 9.0583C47.7776 8.17236 48.0735 7.09064 48.3636 6.2583C53.3903 8.59783 57.7016 12.219 60.8763 16.702Z" fill="white"/>
<path d="M58.7159 20.0401C58.7997 19.9363 58.8824 19.8312 58.9624 19.7229C59.5118 18.9793 60.2596 17.9441 60.8765 16.7018C57.7019 12.2188 53.3906 8.5977 48.3639 6.2583C48.1525 6.86492 47.9395 7.60334 47.8491 8.30252C52.3976 11.2168 56.1515 15.2614 58.7159 20.0401Z" fill="#EDEDED"/>
<path d="M22.9383 24.2155C21.4269 23.345 17.4633 22.1972 14.9932 22.2508C12.3352 22.3087 8.28125 26.5233 8.28125 26.5233C8.36588 27.43 9.54371 30.1891 10.2551 31.0987C10.5934 31.5313 14.112 33.5906 14.9341 35.1604C15.7562 36.7302 16.3615 38.741 16.9578 39.9033C18.0845 42.099 21.4788 42.0507 22.3027 42.7779C24.1517 44.4102 25.8853 44.7569 26.732 43.1184C27.8205 41.0118 23.8206 36.1082 23.3427 34.9999C23.0514 34.3239 23.0178 33.0055 24.7836 32.9324C24.7836 32.9324 26.2897 26.1455 22.9383 24.2155Z" fill="#D67B42"/>
<path d="M23.3431 35C23.0517 34.3241 23.0181 33.0055 24.7839 32.9325C24.7839 32.9325 26.2899 26.1457 22.9385 24.2155C21.4271 23.345 17.4635 22.1972 14.9934 22.2508C14.5745 22.26 14.1208 22.3727 13.6538 22.5554C15.6522 22.9465 17.7161 23.6411 18.7131 24.2153C22.0645 26.1455 20.4281 32.3427 20.4281 32.3427C20.2864 32.9559 19.3566 34.4921 19.648 35.168C20.1169 36.2558 23.4437 40.828 22.559 42.9956C24.3105 44.4371 25.9246 44.681 26.732 43.1184C27.8209 41.0119 23.8209 36.1085 23.3431 35Z" fill="#BE652B"/>
<path d="M22.5579 58.2917C22.2898 58.2917 22.0261 58.3104 21.7677 58.3453C21.6464 58.3617 21.5307 58.2935 21.4788 58.1826C20.1474 55.3464 17.2523 53.3804 13.8945 53.3804C9.69896 53.3804 6.22549 56.4493 5.62297 60.4506C5.60027 60.6012 5.45945 60.703 5.30852 60.6836C5.11191 60.6583 4.91176 60.6451 4.70832 60.6451C2.10793 60.6451 0 62.7393 0 65.3226C0 67.9059 2.10793 70.0002 4.70832 70.0002H22.558C25.8125 70.0002 28.4508 67.3791 28.4508 64.1459C28.4508 60.9126 25.8124 58.2917 22.5579 58.2917Z" fill="white"/>
<path d="M22.558 58.2917C22.2899 58.2917 22.0261 58.3104 21.7678 58.3453C21.6465 58.3617 21.531 58.2935 21.4789 58.1826C20.1475 55.3464 17.2523 53.3804 13.8945 53.3804C13.1658 53.3804 12.4595 53.4748 11.7856 53.6489C14.2138 54.2781 16.2122 55.9639 17.2536 58.1825C17.3057 58.2934 17.4212 58.3616 17.5425 58.3452C17.801 58.3103 18.0646 58.2916 18.3327 58.2916C21.5871 58.2916 24.2254 60.9126 24.2254 64.1457C24.2254 67.3789 21.5871 70.0002 18.3327 70.0002H22.558C25.8124 70.0002 28.4507 67.3791 28.4507 64.1459C28.4507 60.9126 25.8126 58.2917 22.558 58.2917Z" fill="#EDEDED"/>
<path d="M54.7843 29.7563C44.6608 17.6633 28.1415 28.7524 34.7784 39.7581C36.8753 42.8448 40.4349 44.3422 43.9498 43.5331C46.2696 42.9369 47.9473 41.7672 48.9362 40.0563C50.4085 37.3277 49.9445 34.248 47.785 32.4402C46.095 30.9042 43.5339 30.7431 41.541 32.0529C39.7581 33.2519 39.5058 35.9205 41.3739 37.1225C43.0771 38.1598 44.7408 35.9174 43.1675 34.7151C43.18 34.6563 43.2245 34.5533 43.3312 34.4644C43.9908 34.0522 44.9568 33.9359 45.6706 34.5962C47.0462 35.6717 46.8453 37.463 46.2199 38.6481C45.6449 39.6256 44.6472 40.2874 43.1717 40.6708C41.0093 41.1517 38.7364 40.1664 37.3744 38.1556C32.7693 30.418 44.6878 22.3697 52.3638 31.594C53.6978 33.0806 55.9935 31.3456 54.7843 29.7563Z" fill="#BDF9FF"/>
<path d="M65.7198 47.6955V13.2802C65.7198 9.40924 62.5526 6.125 58.6819 6.125C54.8111 6.125 51.644 9.40924 51.644 13.2802V47.6955C49.4974 49.6309 48.125 52.3759 48.125 55.5077C48.125 61.3491 52.8405 66.1819 58.6819 66.1819C64.5232 66.1819 69.2387 61.3491 69.2387 55.5077C69.2387 52.3759 67.8664 49.6309 65.7198 47.6955Z" fill="#CAE8F9"/>
<path d="M69.2385 55.5077C69.2385 61.3491 64.523 66.1819 58.6816 66.1819V6.125C62.5524 6.125 65.7196 9.40924 65.7196 13.2802V47.6955C67.8661 49.6309 69.2385 52.3759 69.2385 55.5077Z" fill="#A4D9F5"/>
<path d="M60.4412 50.5286V16.7995C60.4412 15.8141 59.6672 15.04 58.6818 15.04C57.6963 15.04 56.9223 15.8141 56.9223 16.7995V50.5286C54.8697 51.2513 53.4033 53.2045 53.4033 55.5081C53.4033 58.4287 55.7609 60.7865 58.6818 60.7865C61.6026 60.7865 63.9602 58.4287 63.9602 55.5081C63.9602 53.2045 62.4938 51.2513 60.4412 50.5286Z" fill="#FD3C65"/>
<path d="M60.4411 50.5286V16.7995C60.4411 15.8141 59.6671 15.04 58.6816 15.04V60.7865C61.6025 60.7865 63.9601 58.4287 63.9601 55.5081C63.9601 53.2045 62.4937 51.2513 60.4411 50.5286Z" fill="#E50027"/>
</g>
<defs>
<clipPath id="clip0">
<rect width="70" height="70" fill="white"/>
</clipPath>
</defs>
</svg>
