<svg width="70" height="37" viewBox="0 0 70 37" fill="none" xmlns="http://www.w3.org/2000/svg">
<g clip-path="url(#clip0)">
<path d="M37.5522 69.0312C37.5522 67.1275 37.5522 66.6094 37.5522 64.9688V63.5738V61.3612C37.5522 60.7475 37.4757 60.1375 37.3238 59.5425L35.8156 53.6325C35.3589 51.8438 34.9401 50.2031 34.4415 48.25L34.2221 47.3906C33.9634 46.3771 33.8432 45.9062 33.5723 44.845L32.6765 41.3337C32.5246 40.7387 32.4481 40.1275 32.4481 39.5138V37.9375C32.4481 35.1761 30.2095 32.9375 27.4481 32.9375H17.0314C14.27 32.9375 12.0314 35.1761 12.0314 37.9375V39.5138C12.0314 40.1275 11.9549 40.7375 11.803 41.3325L7.15566 59.5413C7.00381 60.1363 6.92725 60.7475 6.92725 61.3612V65.4375C6.92725 68.1989 9.16582 70.4375 11.9272 70.4375H36.146C36.9226 70.4375 37.5522 69.8079 37.5522 69.0312Z" fill="#E60220"/>
<path d="M60.5212 10.4375C60.5212 7.67625 58.2358 5.4375 55.417 5.4375C52.5982 5.4375 50.3128 7.67625 50.3128 10.4375C48.9028 10.4375 47.7607 11.5563 47.7607 12.9375C47.7607 14.3188 48.9028 15.4375 50.3128 15.4375H60.5212C61.9312 15.4375 63.0732 14.3188 63.0732 12.9375C63.0732 11.5563 61.9312 10.4375 60.5212 10.4375Z" fill="#505050"/>
<path d="M50.3128 12.9375C50.3128 11.5563 51.4549 10.4375 52.8649 10.4375C52.8649 8.11 54.4957 6.17125 56.693 5.61375C56.2834 5.51 55.8598 5.4375 55.417 5.4375C52.5982 5.4375 50.3128 7.67625 50.3128 10.4375C48.9028 10.4375 47.7607 11.5563 47.7607 12.9375C47.7607 14.3188 48.9028 15.4375 50.3128 15.4375H52.8649C51.4549 15.4375 50.3128 14.3188 50.3128 12.9375Z" fill="#3C3C3C"/>
<path d="M29.8955 25.4375H14.583C14.583 26.4025 14.9658 27.2725 15.577 27.9375C14.9658 28.6025 14.583 29.4725 14.583 30.4375C14.583 31.4025 14.9658 32.2725 15.577 32.9375H28.9027C29.5127 32.2725 29.8955 31.4025 29.8955 30.4375C29.8955 29.4725 29.5127 28.6025 28.9015 27.9375C29.5127 27.2725 29.8955 26.4025 29.8955 25.4375Z" fill="#505050"/>
<path d="M18.1291 27.9375C17.5179 27.2725 17.1351 26.4025 17.1351 25.4375H14.583C14.583 26.4025 14.9658 27.2725 15.577 27.9375C14.9658 28.6025 14.583 29.4725 14.583 30.4375C14.583 31.4025 14.9658 32.2725 15.577 32.9375H18.1291C17.5179 32.2725 17.1351 31.4025 17.1351 30.4375C17.1351 29.4725 17.5179 28.6025 18.1291 27.9375Z" fill="#3C3C3C"/>
<path d="M12.2598 59.5413L16.9072 41.3325C17.059 40.7387 17.1356 40.1275 17.1356 39.5138V32.9375H17.0314C14.27 32.9375 12.0314 35.1761 12.0314 37.9375V39.5138C12.0314 40.1275 11.9549 40.7375 11.803 41.3325L7.15566 59.5413C7.00381 60.1363 6.92725 60.7475 6.92725 61.3612V70.4375H12.0314V61.3612C12.0314 60.7475 12.108 60.1363 12.2598 59.5413Z" fill="#BF0202"/>
<path d="M32.4479 10.4375C32.4479 4.915 27.8771 0.4375 22.2396 0.4375C16.602 0.4375 12.0313 4.915 12.0313 10.4375C7.80245 10.4375 4.375 13.795 4.375 17.9375C4.375 22.08 7.80245 25.4375 12.0313 25.4375H32.4479C36.6767 25.4375 40.1042 22.08 40.1042 17.9375C40.1042 13.795 36.6767 10.4375 32.4479 10.4375Z" fill="#505050"/>
<path d="M6.92708 17.9375C6.92708 13.795 10.3545 10.4375 14.5833 10.4375C14.5833 5.33875 18.4816 1.14 23.5156 0.52375C23.0971 0.4725 22.6722 0.4375 22.2396 0.4375C16.602 0.4375 12.0313 4.915 12.0313 10.4375C7.80245 10.4375 4.375 13.795 4.375 17.9375C4.375 22.08 7.80245 25.4375 12.0313 25.4375H14.5833C10.3545 25.4375 6.92708 22.08 6.92708 17.9375Z" fill="#3C3C3C"/>
<path d="M18.4375 15.4375C19.1279 15.4375 19.6875 14.8779 19.6875 14.1875C19.6875 13.4971 19.1279 12.9375 18.4375 12.9375H15.7812C13.7102 12.9375 12.0312 14.6164 12.0312 16.6875C12.0312 18.7586 13.7102 20.4375 15.7812 20.4375H18.4375C19.1279 20.4375 19.6875 19.8779 19.6875 19.1875C19.6875 18.4971 19.1279 17.9375 18.4375 17.9375H15.8333C15.143 17.9375 14.5833 17.3779 14.5833 16.6875C14.5833 15.9971 15.143 15.4375 15.8333 15.4375H18.4375Z" fill="white"/>
<path d="M25.9897 12.9375C23.9187 12.9375 22.2397 14.6164 22.2397 16.6875C22.2397 18.7586 23.9187 20.4375 25.9897 20.4375H26.146C28.2171 20.4375 29.896 18.7586 29.896 16.6875C29.896 14.6164 28.2171 12.9375 26.146 12.9375H25.9897ZM27.3439 16.6875C27.3439 17.3779 26.7843 17.9375 26.0939 17.9375H26.0418C25.3515 17.9375 24.7918 17.3779 24.7918 16.6875C24.7918 15.9971 25.3515 15.4375 26.0418 15.4375H26.0939C26.7843 15.4375 27.3439 15.9971 27.3439 16.6875Z" fill="white"/>
<path d="M32.9478 15.4375C32.6716 15.4375 32.4478 15.6614 32.4478 15.9375C32.4478 16.2136 32.6716 16.4375 32.9478 16.4375H33.479C33.7551 16.4375 33.979 16.6614 33.979 16.9375C33.979 17.2136 33.7551 17.4375 33.479 17.4375H33.2134C32.7905 17.4375 32.4478 17.7803 32.4478 18.2031V19.1615C32.4478 19.8662 33.0191 20.4375 33.7238 20.4375H34.4998C34.776 20.4375 34.9998 20.2136 34.9998 19.9375C34.9998 19.6614 34.776 19.4375 34.4998 19.4375H33.9686C33.6924 19.4375 33.4686 19.2136 33.4686 18.9375C33.4686 18.6614 33.6924 18.4375 33.9686 18.4375H34.2342C34.6571 18.4375 34.9998 18.0947 34.9998 17.6719V16.7135C34.9998 16.0088 34.4285 15.4375 33.7238 15.4375H32.9478Z" fill="white"/>
<path d="M42.6561 10.4375C41.2461 10.4375 40.104 9.31875 40.104 7.9375C40.104 6.55625 41.2461 5.4375 42.6561 5.4375C44.0661 5.4375 45.2082 6.55625 45.2082 7.9375C45.2082 9.31875 44.0661 10.4375 42.6561 10.4375Z" fill="#505050"/>
<path d="M60.5208 22.9375C59.1108 22.9375 57.9688 21.8187 57.9688 20.4375C57.9688 19.0562 59.1108 17.9375 60.5208 17.9375C61.9309 17.9375 63.0729 19.0562 63.0729 20.4375C63.0729 21.8187 61.9309 22.9375 60.5208 22.9375Z" fill="#505050"/>
<path d="M45.2083 27.9375C43.7983 27.9375 42.6562 26.8187 42.6562 25.4375C42.6562 24.0562 43.7983 22.9375 45.2083 22.9375C46.6184 22.9375 47.7604 24.0562 47.7604 25.4375C47.7604 26.8187 46.6184 27.9375 45.2083 27.9375Z" fill="#505050"/>
<path d="M63.0729 45.4375H60.5208V37.9375C60.5208 36.5562 59.3788 35.4375 57.9688 35.4375H42.6562C41.2462 35.4375 40.1042 36.5562 40.1042 37.9375V45.4375H37.5521C36.1421 45.4375 35 46.5562 35 47.9375V48.8925C35 49.84 35.5461 50.705 36.4113 51.1288L40.1042 52.9375V53.3662C40.1042 54.6925 40.6414 55.9638 41.5997 56.9013L43.7141 58.9725C44.6711 59.91 45.9701 60.4375 47.3227 60.4375H53.3023C54.6561 60.4375 55.9539 59.9112 56.9109 58.9725L59.0253 56.9013C59.9823 55.9638 60.5208 54.6912 60.5208 53.3662V52.9375L64.2137 51.1288C65.0789 50.705 65.625 49.8387 65.625 48.8925V47.9375C65.625 46.5562 64.4829 45.4375 63.0729 45.4375Z" fill="#EECBA3"/>
<path d="M63.5837 48.4375C60.7649 48.4375 58.4795 46.1988 58.4795 43.4375V35.9375H61.0316C62.4416 35.9375 63.5837 37.0562 63.5837 38.4375V48.4375Z" fill="#9B5400"/>
<path d="M55.4168 30.4375H45.2085C40.9797 30.4375 37.5522 33.795 37.5522 37.9375V42.9375C37.5522 44.3188 38.6943 45.4375 40.1043 45.4375H46.5215C50.5832 45.4375 54.4777 43.8575 57.3488 41.0438L59.0255 39.4013C59.9825 38.4638 60.521 37.1912 60.521 35.8662V35.4375C60.521 32.6762 58.2356 30.4375 55.4168 30.4375Z" fill="#AF680A"/>
</g>
<defs>
<clipPath id="clip0">
<rect width="70" height="70" fill="white"/>
</clipPath>
</defs>
</svg>
