<svg width="70" height="70" viewBox="0 0 70 70" fill="none" xmlns="http://www.w3.org/2000/svg">
<path d="M66.1719 18.5938H42.1094C40.9013 18.5938 39.9219 19.5731 39.9219 20.7812C39.9219 21.9894 40.9013 22.9688 42.1094 22.9688H66.1719C67.38 22.9688 68.3594 21.9894 68.3594 20.7812C68.3594 19.5731 67.38 18.5938 66.1719 18.5938Z" fill="#FF6155"/>
<path d="M58.5156 66.7188H60.7031C61.3072 66.7188 61.7969 66.2291 61.7969 65.625V61.25C61.7969 60.6459 61.3072 60.1562 60.7031 60.1562H58.5156C57.9116 60.1562 57.4219 60.6459 57.4219 61.25V65.625C57.4219 66.2291 57.9116 66.7188 58.5156 66.7188Z" fill="#898989"/>
<path d="M66.1715 22.9688V51.4062L64.3982 58.4993C64.2799 58.9726 64.0068 59.3927 63.6223 59.6929C63.2377 59.9932 62.7639 60.1562 62.2761 60.1562H58.5154C58.3717 60.1562 58.2295 60.1845 58.0968 60.2395C57.9641 60.2945 57.8435 60.3751 57.7419 60.4766C57.6404 60.5782 57.5598 60.6988 57.5048 60.8315C57.4499 60.9642 57.4216 61.1065 57.4216 61.2501L57.4219 63.4374C57.4219 63.581 57.3936 63.7233 57.3387 63.856C57.2837 63.9887 57.2031 64.1093 57.1016 64.2109C57 64.3124 56.8794 64.393 56.7467 64.448C56.614 64.503 56.4718 64.5312 56.3281 64.5312H47.5776L47.5781 60.1562H46.0048C45.517 60.1562 45.0431 59.9932 44.6586 59.6929C44.2741 59.3927 44.001 58.9726 43.8826 58.4993L42.1094 51.4062V22.9688H66.1715Z" fill="#EF233E"/>
<path d="M58.9952 14.2188H49.2861C48.7982 14.2188 48.3244 14.3818 47.9399 14.6821C47.5553 14.9823 47.2822 15.4024 47.1639 15.8757L46.4844 18.5938H61.7969L61.1174 15.8757C60.999 15.4024 60.7259 14.9823 60.3414 14.6821C59.9569 14.3818 59.483 14.2188 58.9952 14.2188Z" fill="#D71325"/>
<path d="M11.4844 60.1562H9.29688C8.69281 60.1562 8.20312 60.6459 8.20312 61.25V65.625C8.20312 66.2291 8.69281 66.7188 9.29688 66.7188H11.4844C12.0884 66.7188 12.5781 66.2291 12.5781 65.625V61.25C12.5781 60.6459 12.0884 60.1562 11.4844 60.1562Z" fill="#898989"/>
<path d="M27.8906 18.5938H3.82812C2.62 18.5938 1.64062 19.5731 1.64062 20.7812C1.64062 21.9894 2.62 22.9688 3.82812 22.9688H27.8906C29.0987 22.9688 30.0781 21.9894 30.0781 20.7812C30.0781 19.5731 29.0987 18.5938 27.8906 18.5938Z" fill="#6ECE78"/>
<path d="M27.8902 22.9688V51.4062L26.117 58.4993C25.9987 58.9726 25.7255 59.3927 25.341 59.693C24.9565 59.9932 24.4826 60.1562 23.9948 60.1562H22.4215L22.422 64.5312H13.6715C13.5278 64.5312 13.3856 64.503 13.2529 64.448C13.1202 64.393 12.9996 64.3124 12.898 64.2109C12.7965 64.1093 12.7159 63.9887 12.6609 63.856C12.606 63.7233 12.5777 63.581 12.5777 63.4374L12.578 61.2501C12.578 61.1065 12.5497 60.9642 12.4948 60.8315C12.4398 60.6988 12.3593 60.5782 12.2577 60.4766C12.1561 60.3751 12.0355 60.2945 11.9028 60.2395C11.7701 60.1845 11.6279 60.1562 11.4842 60.1562H7.72357C7.23572 60.1562 6.76188 59.9932 6.37735 59.693C5.99283 59.3927 5.7197 58.9726 5.60138 58.4993L3.82812 51.4062V22.9688H27.8902Z" fill="#55AB5E"/>
<path d="M20.7139 14.2188H11.0048C10.517 14.2187 10.0431 14.3818 9.6586 14.682C9.27408 14.9823 9.00095 15.4024 8.88263 15.8757L8.20312 18.5938H23.5156L22.8361 15.8757C22.7178 15.4024 22.4447 14.9823 22.0601 14.682C21.6756 14.3818 21.2018 14.2187 20.7139 14.2188Z" fill="#55AB5E"/>
<path d="M53.5938 7.65625H16.4062C15.1981 7.65625 14.2188 8.63563 14.2188 9.84375C14.2188 11.0519 15.1981 12.0312 16.4062 12.0312H53.5938C54.8019 12.0312 55.7812 11.0519 55.7812 9.84375C55.7812 8.63563 54.8019 7.65625 53.5938 7.65625Z" fill="#F8DC46"/>
<path d="M25.1562 60.1562H22.9688C22.3647 60.1562 21.875 60.6459 21.875 61.25V65.625C21.875 66.2291 22.3647 66.7188 22.9688 66.7188H25.1562C25.7603 66.7188 26.25 66.2291 26.25 65.625V61.25C26.25 60.6459 25.7603 60.1562 25.1562 60.1562Z" fill="#A3A3A3"/>
<path d="M52.9375 12.0312V42.6562L50.8698 59.1981C50.8367 59.4627 50.7082 59.706 50.5083 59.8824C50.3085 60.0589 50.0511 60.1562 49.7845 60.1562H45.2814C45.1377 60.1562 44.9955 60.1845 44.8628 60.2395C44.7301 60.2945 44.6095 60.3751 44.5079 60.4766C44.4064 60.5782 44.3258 60.6988 44.2708 60.8315C44.2159 60.9642 44.1876 61.1065 44.1876 61.2501L44.1879 63.4374C44.1879 63.581 44.1596 63.7233 44.1047 63.856C44.0497 63.9887 43.9691 64.1093 43.8676 64.2109C43.766 64.3124 43.6454 64.393 43.5127 64.448C43.38 64.503 43.2378 64.5312 43.0941 64.5312H27.7809C27.6372 64.5312 27.495 64.503 27.3623 64.448C27.2296 64.393 27.109 64.3124 27.0074 64.2109C26.9059 64.1093 26.8253 63.9887 26.7703 63.856C26.7154 63.7233 26.6871 63.581 26.6871 63.4374L26.6874 61.2501C26.6874 61.1065 26.6591 60.9642 26.6041 60.8315C26.5492 60.6988 26.4686 60.5782 26.3671 60.4766C26.2655 60.3751 26.1449 60.2945 26.0122 60.2395C25.8795 60.1845 25.7373 60.1562 25.5936 60.1562H21.0905C20.8239 60.1562 20.5665 60.0589 20.3667 59.8824C20.1668 59.706 20.0383 59.4627 20.0052 59.1981L17.9375 42.6562V12.0312H52.9375Z" fill="#FFC52F"/>
<path d="M44.8438 66.7188H47.0312C47.6353 66.7188 48.125 66.2291 48.125 65.625V61.25C48.125 60.6459 47.6353 60.1562 47.0312 60.1562H44.8438C44.2397 60.1562 43.75 60.6459 43.75 61.25V65.625C43.75 66.2291 44.2397 66.7188 44.8438 66.7188Z" fill="#A3A3A3"/>
<path d="M45.6793 3.28125H24.3207C23.9145 3.28125 23.5162 3.39437 23.1707 3.60795C22.8251 3.82152 22.5458 4.12711 22.3641 4.49047L20.7812 7.65625H49.2188L47.6359 4.49047C47.4542 4.12711 47.1749 3.82152 46.8293 3.60795C46.4838 3.39437 46.0855 3.28125 45.6793 3.28125Z" fill="#F4B30B"/>
<path d="M28.0408 39.938L27.1797 41.9223L28.2558 43.7863C28.6548 44.4619 29.3781 44.8797 30.1626 44.8885H30.9737C31.3068 44.8885 31.5771 44.6185 31.5771 44.2852V40.5413C31.5771 40.208 31.3068 39.938 30.9737 39.938H28.0408Z" fill="#E5E8EC"/>
<path d="M44.7429 36.209L43.8878 34.5013C43.7317 34.1899 43.3453 34.0746 43.0443 34.2504L39.8668 36.1038C39.5833 36.2693 39.4841 36.6309 39.6432 36.9178L41.1246 39.5839V40.2187L43.9534 39.5839L44.6923 38.3904C45.1029 37.7262 45.1221 36.8918 44.7429 36.209Z" fill="#E5E8EC"/>
<path d="M35.2309 28.386L34.0562 26.5H32.4018C31.644 26.5 30.9415 26.8977 30.5516 27.5476L29.7668 28.823C29.5941 29.1037 29.6786 29.4713 29.9567 29.6483L32.8033 31.4596C33.0968 31.6464 33.4874 31.5466 33.6556 31.2421L35.2309 28.386Z" fill="#E5E8EC"/>
<path d="M41.4248 29.8996L40.064 27.5612C39.7174 26.9064 39.0365 26.498 38.2956 26.5005H34.0562L37.2349 32.5118L36.2825 33.0834C36.0182 33.2419 36.1057 33.6453 36.4121 33.6802L40.5025 34.1457C40.6384 34.1611 40.7693 34.0889 40.829 33.9658L42.8293 29.8368C42.964 29.5587 42.6686 29.269 42.3933 29.4087L41.4248 29.8996Z" fill="white"/>
<path d="M36.8812 39.5837V38.6498C36.8812 38.355 36.5186 38.2147 36.3202 38.4329L33.5266 41.5059C33.4218 41.6214 33.4145 41.7956 33.5097 41.9193L36.3032 45.551C36.491 45.795 36.8815 45.6622 36.8815 45.3542V44.888H39.7102C40.4551 44.9063 41.1439 44.4931 41.4782 43.8273L43.9535 39.5837H36.8812Z" fill="white"/>
<path d="M31.9507 36.0326L30.2552 32.3588C30.1994 32.2377 30.075 32.1636 29.9423 32.172L25.5138 32.4486C25.2002 32.4684 25.0969 32.879 25.364 33.0447L26.5268 33.7658L25.2118 36.4015C24.8461 37.0614 24.8461 37.8634 25.2118 38.5233L27.1794 41.9224L27.9156 40.6451L30.5437 36.0835L31.5417 36.4687C31.812 36.5729 32.0722 36.2957 31.9507 36.0326Z" fill="white"/>
</svg>
