<svg width="50" height="50" viewBox="0 0 50 50" fill="none" xmlns="http://www.w3.org/2000/svg">
<g clip-path="url(#clip0)">
<path d="M25 50C38.8071 50 50 38.8071 50 25C50 11.1929 38.8071 0 25 0C11.1929 0 0 11.1929 0 25C0 38.8071 11.1929 50 25 50Z" fill="#ABD4FF"/>
<path d="M25.0003 0C24.4935 0 23.9906 0.0168945 23.4912 0.0466797C36.5955 0.827148 46.9822 11.6997 46.9822 25C46.9822 38.3003 36.5955 49.173 23.4913 49.9533C23.9906 49.9831 24.4935 50 25.0003 50C38.8074 50 50.0003 38.8071 50.0003 25C50.0003 11.1929 38.8074 0 25.0003 0Z" fill="#9AC3F8"/>
<path d="M49.6345 20.7588C47.6191 8.97285 37.3606 0 25 0C23.1964 0 21.439 0.195312 19.7437 0.558203C20.2424 2.56621 20.7513 4.92451 21.2094 7.70693C21.9586 12.2575 22.2728 16.116 24.441 16.8144C26.5529 17.4945 28.2692 14.4832 31.1981 15.0517C33.6556 15.5286 33.9999 17.9498 36.1925 19.7522C39.1667 22.1971 44.7618 22.8616 49.6345 20.7588Z" fill="#D0E6A5"/>
<path d="M25 0C24.4946 0 23.9934 0.0169922 23.4956 0.0469727C35.4858 0.763281 45.1982 9.92949 46.7605 21.6723C47.1221 21.5947 47.4818 21.5051 47.8372 21.4022C48.2579 21.2805 48.6739 21.1399 49.083 20.9825C49.2683 20.9112 49.4517 20.8376 49.6345 20.7588C47.6191 8.97285 37.3606 0 25 0V0Z" fill="#A7D676"/>
<path d="M10.3808 16.6996C9.59668 14.1693 7.44619 11.8145 4.82363 10.2432C1.79316 14.3795 0 19.4794 0 25C0 31.6533 2.604 37.6947 6.84209 42.174C9.97822 40.0894 12.2258 36.7331 12.4386 33.723C12.5801 31.7213 11.7048 31.5316 10.9421 27.5497C9.7999 21.5876 11.3332 19.7732 10.3808 16.6996Z" fill="#D0E6A5"/>
<path d="M16.52 48.5223C19.1682 49.4772 22.0228 50.0001 25.0001 50.0001C32.3852 50.0001 39.02 46.7961 43.5966 41.7045C41.9257 39.2268 39.4051 36.9249 37.9799 35.6246C36.0044 33.8222 31.2951 29.5256 28.3909 30.9173C26.1202 32.0056 27.2296 35.4804 25.2527 39.9832C23.1954 44.6696 19.3205 46.9978 16.52 48.5223Z" fill="#D0E6A5"/>
<path d="M42.8874 40.725C42.6447 40.4094 42.3913 40.0996 42.1329 39.7964C37.8608 45.6037 31.1395 49.498 23.4912 49.9535C23.4914 49.9537 23.4916 49.9538 23.4918 49.9539C23.9909 49.9838 24.4937 50.0002 25.0003 50.0002C32.3854 50.0002 39.0202 46.7962 43.5967 41.7046C43.372 41.3713 43.1335 41.045 42.8874 40.725Z" fill="#A7D676"/>
<path d="M15.1206 29.1609C17.135 29.1609 18.768 27.8605 18.768 26.2565C18.768 24.6524 17.135 23.3521 15.1206 23.3521C13.1062 23.3521 11.4731 24.6524 11.4731 26.2565C11.4731 27.8605 13.1062 29.1609 15.1206 29.1609Z" fill="white"/>
<path d="M34.8911 29.1609C36.9055 29.1609 38.5385 27.8605 38.5385 26.2565C38.5385 24.6524 36.9055 23.3521 34.8911 23.3521C32.8767 23.3521 31.2437 24.6524 31.2437 26.2565C31.2437 27.8605 32.8767 29.1609 34.8911 29.1609Z" fill="white"/>
<path d="M18.982 23.9099C18.5325 23.9099 18.1681 23.5455 18.1681 23.0961C18.1681 22.5876 17.7544 22.174 17.2459 22.174C16.7374 22.174 16.3236 22.5876 16.3236 23.0961C16.3236 23.5455 15.9592 23.9099 15.5097 23.9099C15.0602 23.9099 14.6958 23.5455 14.6958 23.0961C14.6958 21.6902 15.8398 20.5464 17.2459 20.5464C18.652 20.5464 19.7959 21.6902 19.7959 23.0961C19.7959 23.5455 19.4315 23.9099 18.982 23.9099Z" fill="#4E5660"/>
<path d="M34.5015 23.9099C34.052 23.9099 33.6876 23.5455 33.6876 23.0961C33.6876 22.5876 33.2738 22.174 32.7653 22.174C32.2568 22.174 31.8431 22.5876 31.8431 23.0961C31.8431 23.5455 31.4787 23.9099 31.0292 23.9099C30.5797 23.9099 30.2153 23.5455 30.2153 23.0961C30.2153 21.6902 31.3592 20.5464 32.7653 20.5464C34.1714 20.5464 35.3154 21.6902 35.3154 23.0961C35.3154 23.5455 34.951 23.9099 34.5015 23.9099Z" fill="#4E5660"/>
<path d="M25.006 30.7063C24.0651 30.7063 23.1702 30.2989 22.5509 29.5883C22.2556 29.2494 22.2909 28.7354 22.6298 28.4401C22.9687 28.1448 23.4826 28.18 23.7781 28.5189C24.0882 28.8747 24.5358 29.0787 25.0061 29.0787C25.4765 29.0787 25.9241 28.8747 26.2341 28.5189C26.5295 28.1801 27.0436 28.1449 27.3825 28.4401C27.7213 28.7354 27.7567 29.2494 27.4614 29.5883C26.8419 30.2989 25.947 30.7063 25.006 30.7063Z" fill="#4E5660"/>
</g>
<defs>
<clipPath id="clip0">
<rect width="50" height="50" fill="white"/>
</clipPath>
</defs>
</svg>
